<?xml version="1.0" encoding="UTF-8" standalone="no"?>
<!-- Created with Inkscape (http://www.inkscape.org/) -->

<svg
   xmlns:dc="http://purl.org/dc/elements/1.1/"
   xmlns:cc="http://creativecommons.org/ns#"
   xmlns:rdf="http://www.w3.org/1999/02/22-rdf-syntax-ns#"
   xmlns:svg="http://www.w3.org/2000/svg"
   xmlns="http://www.w3.org/2000/svg"
   xmlns:sodipodi="http://sodipodi.sourceforge.net/DTD/sodipodi-0.dtd"
   xmlns:inkscape="http://www.inkscape.org/namespaces/inkscape"
   width="100"
   height="100"
   id="svg3060"
   version="1.1"
   inkscape:version="0.48.4 r9939"
   sodipodi:docname="tri.svg">
  <defs
     id="defs3062" />
  <sodipodi:namedview
     id="base"
     pagecolor="#ffffff"
     bordercolor="#666666"
     borderopacity="1.0"
     inkscape:pageopacity="0.0"
     inkscape:pageshadow="2"
     inkscape:zoom="1.979899"
     inkscape:cx="68.39651"
     inkscape:cy="44.837726"
     inkscape:document-units="px"
     inkscape:current-layer="layer1"
     showgrid="false"
     fit-margin-top="0"
     fit-margin-left="0"
     fit-margin-right="0"
     fit-margin-bottom="0"
     inkscape:window-width="678"
     inkscape:window-height="454"
     inkscape:window-x="26"
     inkscape:window-y="26"
     inkscape:window-maximized="0"
     inkscape:snap-page="true"
     inkscape:snap-bbox="true" />
  <metadata
     id="metadata3065">
    <rdf:RDF>
      <cc:Work
         rdf:about="">
        <dc:format>image/svg+xml</dc:format>
        <dc:type
           rdf:resource="http://purl.org/dc/dcmitype/StillImage" />
        <dc:title></dc:title>
      </cc:Work>
    </rdf:RDF>
  </metadata>
  <g
     inkscape:label="レイヤー 1"
     inkscape:groupmode="layer"
     id="layer1"
     transform="translate(-358.57143,-162.36218)">
    <path
       inkscape:connector-curvature="0"
       style="fill:#666666;stroke:none"
       d="m 358.57143,162.36218 0,50.75 c 0.46529,-1.19675 0.92797,-2.38886 1.40625,-3.5625 1.92419,-4.72169 4.04597,-11.47469 7.84375,-17.6875 3.79778,-6.21281 10.5896,-12.5 19.875,-12.5 9.2854,0 16.07722,6.28718 19.875,12.5 3.79778,6.21282 5.91956,12.96581 7.84375,17.6875 2.24936,5.51964 4.31869,11.56523 6.78125,15.59375 2.46256,4.02852 4.01473,5.40625 7.25,5.40625 3.23526,0 4.78744,-1.37773 7.25,-5.40625 2.46256,-4.02852 4.50064,-10.07411 6.75,-15.59375 1.92419,-4.72169 4.04597,-11.47469 7.84375,-17.6875 1.78212,-2.91538 4.23227,-5.8342 7.28125,-8.125 l 0,-21.375 -100,0 z m 29.125,31.78125 c -3.23526,0 -4.78744,1.37773 -7.25,5.40625 -2.46256,4.02852 -4.50064,10.07411 -6.75,15.59375 -1.92419,4.72169 -4.04597,11.50594 -7.84375,17.71875 -1.78212,2.91538 -4.23227,5.8342 -7.28125,8.125 l 0,21.375 100,0 0,-50.78125 c -0.46529,1.19675 -0.92797,2.38886 -1.40625,3.5625 -1.92419,4.72169 -4.04597,11.50593 -7.84375,17.71875 -3.79778,6.21282 -10.5896,12.49999 -19.875,12.5 -9.2854,-1e-5 -16.07722,-6.28718 -19.875,-12.5 -3.76181,-6.15398 -5.87147,-12.84725 -7.78125,-17.5625 l -0.0625,-0.15625 c -2.24936,-5.51964 -4.31869,-11.56523 -6.78125,-15.59375 -2.46256,-4.02852 -4.01473,-5.40625 -7.25,-5.40625 z"
       id="rect3036" />
  </g>
</svg>
